<svg id="Capa_1" enable-background="new 0 0 512 512" height="512" viewBox="0 0 512 512" width="512" xmlns="http://www.w3.org/2000/svg"><g><path d="m497 105h-66v135c0 8.284-6.716 15-15 15h-192c-8.284 0-15-6.716-15-15v-135h-34v327c0 8.284-6.716 15-15 15h-80c-8.284 0-15-6.716-15-15v-327h-50c-8.284 0-15 6.716-15 15v377c0 8.284 6.716 15 15 15h482c8.284 0 15-6.716 15-15v-377c0-8.284-6.716-15-15-15zm-257 342h-16c-8.284 0-15-6.716-15-15s6.716-15 15-15h16c8.284 0 15 6.716 15 15s-6.716 15-15 15zm0-64h-16c-8.284 0-15-6.716-15-15s6.716-15 15-15h16c8.284 0 15 6.716 15 15s-6.716 15-15 15zm0-64h-16c-8.284 0-15-6.716-15-15s6.716-15 15-15h16c8.284 0 15 6.716 15 15s-6.716 15-15 15zm88 128h-16c-8.284 0-15-6.716-15-15s6.716-15 15-15h16c8.284 0 15 6.716 15 15s-6.716 15-15 15zm0-64h-16c-8.284 0-15-6.716-15-15s6.716-15 15-15h16c8.284 0 15 6.716 15 15s-6.716 15-15 15zm0-64h-16c-8.284 0-15-6.716-15-15s6.716-15 15-15h16c8.284 0 15 6.716 15 15s-6.716 15-15 15zm88 128h-16c-8.284 0-15-6.716-15-15s6.716-15 15-15h16c8.284 0 15 6.716 15 15s-6.716 15-15 15zm0-64h-16c-8.284 0-15-6.716-15-15s6.716-15 15-15h16c8.284 0 15 6.716 15 15s-6.716 15-15 15zm0-64h-16c-8.284 0-15-6.716-15-15s6.716-15 15-15h16c8.284 0 15 6.716 15 15s-6.716 15-15 15z"/><path d="m130 73h-20c-8.284 0-15 6.716-15 15v314c0 8.284 6.716 15 15 15h20c8.284 0 15-6.716 15-15v-314c0-8.284-6.716-15-15-15z"/><path d="m401 59.99v165.01h-162v-165.01c0-33.132 26.858-59.99 59.99-59.99h116.724c7.912 0 11.288 9.896 5.144 14.88-10.886 8.831-19.858 22.859-19.858 45.11z"/></g></svg>