<svg id="Capa_1" enable-background="new 0 0 512.005 512.005" height="512" viewBox="0 0 512.005 512.005" width="512" xmlns="http://www.w3.org/2000/svg"><g><path d="m360.005 71.003h107l-6 8c-4.971 6.627-3.627 16.029 3 21 6.599 4.949 16.008 3.657 21-3l24-32c3.852-5.128 4.041-12.295.234-17.659-.585-.824-6.81-9.108-24.234-32.341-4.972-6.629-14.372-7.971-21-3-6.627 4.971-7.971 14.373-3 21l6 8h-107c-8.284 0-15 6.716-15 15s6.716 15 15 15z"/><path d="m275.072 264.005 155.932 137.218c0-8.667 0-269.911 0-274.439z"/><path d="m215.98 276.044 194.312-170.995c-49.144-.082-338.917-.104-389.559.033z"/><path d="m.014 126.814c-.01 39.384-.036 232.266.029 274.353l156.645-137.166z"/><path d="m410.344 423.003-157.977-139.018-26.453 23.278c-5.636 4.959-14.103 5.004-19.791.024l-26.666-23.349-158.833 139.083c31.489.072-128.259-.018 389.72-.018z"/><path d="m497.005 185.003h-36.009v252.991c0 8.284-6.716 15-15 15h-364.991v35.009c0 8.284 6.716 15 15 15h401c8.284 0 15-6.716 15-15v-288c0-8.284-6.716-15-15-15z"/></g></svg>